<svg width="125" height="124" viewBox="0 0 125 124" fill="none" xmlns="http://www.w3.org/2000/svg">
<path d="M62.8999 124C97.1416 124 124.9 96.2417 124.9 62C124.9 27.7583 97.1416 0 62.8999 0C28.6582 0 0.899902 27.7583 0.899902 62C0.899902 96.2417 28.6582 124 62.8999 124Z" fill="#000080"/>
<path d="M92.2809 24.885C93.0109 24.254 93.7629 23.477 94.6389 22.885C95.5069 22.299 96.4509 21.691 97.4489 21.455C100.599 20.707 103.072 23.442 102.032 26.527C101.681 27.568 100.915 28.47 100.32 29.424C100.165 29.674 99.9439 29.882 99.6819 30.195C102.004 30.274 103.043 31.702 103.671 33.597C104.068 34.795 103.852 35.875 103.134 36.903C100.663 40.442 98.2109 43.993 95.7519 47.541C95.6909 47.628 95.6459 47.726 95.7129 47.91C96.1529 47.424 96.5919 46.937 97.0339 46.452C98.3199 45.047 99.6549 44.594 100.83 45.16C101.928 45.69 102.837 47.785 102.49 49.266C102.265 50.2181 101.931 51.1412 101.495 52.017C99.7189 55.586 97.2159 58.652 94.6409 61.659C92.1489 64.571 89.5899 67.426 87.1489 70.379C85.7479 72.074 84.4039 73.841 83.2489 75.709C81.6069 78.363 79.7309 80.761 77.3979 82.86C71.9939 87.72 66.5999 92.588 60.7229 96.882C57.7699 99.04 54.6889 100.953 51.2029 102.179C49.6199 102.736 48.1289 103.545 46.5789 104.202C46.2279 104.351 45.8109 104.342 45.4259 104.405C45.3979 104.292 45.3689 104.178 45.3419 104.064C46.6169 103.489 47.8539 102.796 49.1749 102.357C55.0769 100.398 60.0759 96.93 64.7509 92.981C69.5739 88.906 74.2679 84.677 78.9769 80.471C79.7659 79.766 80.4879 78.909 81.0019 77.989C83.7699 73.048 87.5899 68.936 91.2489 64.686C94.3259 61.112 97.5489 57.633 99.9359 53.527C100.712 52.192 101.312 50.736 101.834 49.278C102.222 48.199 101.73 47.155 101.144 46.241C100.58 45.362 99.2389 45.29 98.2969 46.098C97.6719 46.634 97.1589 47.297 96.5799 47.888C93.0209 51.518 89.5019 55.186 85.8819 58.754C83.6735 60.9276 81.7577 63.3795 80.1829 66.048C79.9959 66.364 79.8409 66.705 79.6169 66.992C79.4719 67.176 79.2279 67.282 79.0289 67.423C79.0499 67.184 78.9869 66.891 79.1019 66.713C80.2869 64.891 81.4369 63.041 82.7289 61.297C83.5259 60.221 84.4819 59.236 85.4869 58.347C88.6269 55.572 91.2899 52.406 93.8509 49.093C96.9879 45.035 99.8079 40.779 102.634 36.516C103.774 34.797 102.968 31.981 101.098 31.09C100.07 30.6 99.0509 30.82 98.2109 31.766C95.6049 34.7 93.0709 37.702 90.3979 40.573C86.6829 44.562 83.0749 48.66 78.7739 52.073C77.7159 52.912 76.9489 54.115 76.0399 55.144C75.8939 55.31 75.7039 55.439 75.5339 55.585L75.2989 55.404C75.4399 55.094 75.5219 54.735 75.7319 54.483C76.4569 53.615 77.1279 52.666 77.9929 51.959C84.0259 47.02 89.0719 41.123 94.2479 35.351C96.0649 33.324 97.8799 31.292 99.6489 29.223C100.281 28.485 100.897 27.686 101.306 26.814C102.366 24.555 100.803 21.837 98.5229 21.895C97.3729 21.924 96.2939 22.255 95.3809 23.021C87.9659 29.256 80.6399 35.584 73.9099 42.579C72.0259 44.538 69.8889 46.254 67.8479 48.059C67.5559 48.317 67.1539 48.451 66.8019 48.642L66.6029 48.43C66.7159 48.265 66.8009 48.07 66.9459 47.941C69.0769 46.057 71.3779 44.334 73.3239 42.276C78.6229 36.67 84.5289 31.73 90.1709 26.499C90.6269 26.076 90.9999 25.531 91.3089 24.984C91.9539 23.841 91.6399 22.807 90.8169 21.869C90.0189 20.96 89.0329 20.569 87.8549 20.868C87.0589 21.07 86.2449 21.294 85.5229 21.67C82.6049 23.187 79.8629 24.965 77.4539 27.234C76.4299 28.199 75.3209 29.074 74.2529 29.992C72.5129 31.489 70.7699 32.983 69.0359 34.487C63.9199 38.926 58.7389 43.272 53.0729 47.023C48.7339 49.897 44.5229 52.965 40.2699 55.969C39.6229 56.427 39.0669 57.013 38.4549 57.524C38.2489 57.696 38.0019 57.819 37.7729 57.964L37.5509 57.736C37.7519 57.485 37.9119 57.18 38.1609 56.99C41.2249 54.646 44.2549 52.252 47.3899 50.005C51.7209 46.9 56.1359 43.912 60.5079 40.865C60.9089 40.586 61.2639 40.24 61.6379 39.923C62.3869 39.286 62.6299 38.476 62.2309 37.685C61.8569 36.945 61.0959 36.939 60.4549 37.071C59.4159 37.284 58.3479 37.536 57.4009 37.996C55.0089 39.156 52.5329 40.011 49.9109 40.403C48.2529 40.651 47.0289 41.457 46.0929 42.83C43.2095 47.0633 40.0147 51.0757 36.5349 54.834C36.2569 55.134 36.0739 55.553 35.9369 55.948C33.9499 61.673 31.9439 67.393 30.0329 73.143C29.6749 74.223 29.6439 75.432 29.5839 76.587C29.5329 77.571 29.1119 78.134 28.2299 78.544C26.6489 79.279 25.1219 80.131 23.5549 80.9C23.3479 81.003 23.0449 80.912 22.7869 80.911C22.9579 80.714 23.0919 80.443 23.3079 80.33C24.9349 79.477 26.5889 78.677 28.2059 77.807C28.5099 77.644 28.8969 77.242 28.8899 76.959C28.7989 73.402 30.4559 70.316 31.5089 67.074C32.7379 63.29 34.0399 59.529 35.3469 55.771C35.5419 55.21 35.8569 54.646 36.2549 54.21C39.4019 50.764 42.4079 47.203 44.9589 43.291C46.3359 41.18 48.1279 40.013 50.6549 39.571C52.7339 39.208 54.7139 38.271 56.7379 37.592C57.8939 37.204 59.0289 36.701 60.2159 36.467C61.9609 36.123 62.8119 36.831 63.0539 38.696C64.5409 37.49 66.0059 36.367 67.3979 35.16C71.0519 31.99 74.6149 28.71 78.3319 25.616C80.7549 23.598 83.3859 21.822 86.3399 20.625C88.8939 19.591 90.9419 20.279 91.9679 22.576C92.2659 23.245 92.1829 24.084 92.2809 24.885Z" fill="#D9D9D9" stroke="white" stroke-width="2"/>
</svg>
