<svg width="124" height="124" viewBox="0 0 124 124" fill="none" xmlns="http://www.w3.org/2000/svg">
<path d="M62 124C96.2417 124 124 96.2417 124 62C124 27.7583 96.2417 0 62 0C27.7583 0 0 27.7583 0 62C0 96.2417 27.7583 124 62 124Z" fill="#800000"/>
<path d="M35.2849 106.183L35.3749 106.586C35.7139 106.498 36.1029 106.489 36.3839 106.311C40.5229 103.675 44.7419 101.208 49.3509 99.449C52.6619 98.184 56.0169 97.031 59.0419 95.08C61.1429 93.725 63.3719 92.533 65.6409 91.479C68.8509 89.988 71.7479 88.096 74.2169 85.566C77.9329 81.758 82.0229 78.398 86.3259 75.279C87.9349 74.113 89.4329 72.79 90.9429 71.492C91.2959 71.19 91.4889 70.703 91.7529 70.299C92.3449 69.39 92.7739 68.298 93.5579 67.607C95.3679 66.008 95.7879 64.11 95.3169 61.878C94.9239 60.023 94.4819 58.176 94.1329 56.313C93.6279 53.608 92.8839 51.002 91.2369 48.746C90.6759 47.977 90.3819 47.191 90.3869 46.209C90.3919 45.575 90.1139 44.887 89.7979 44.312C88.2879 41.558 86.4479 39.033 84.2199 36.815C83.7819 36.378 83.7479 36.036 83.8479 35.468C84.0079 34.556 84.3039 33.492 83.9959 32.707C82.9929 30.146 81.2779 28.229 78.3899 27.657C75.4029 27.066 72.4149 27.232 69.4169 27.508C69.0489 27.542 68.5789 27.516 68.3009 27.316C67.2199 26.54 66.0459 26.51 64.8729 26.867C62.1269 27.701 59.7689 29.217 57.7059 31.199C57.5099 31.388 57.3149 31.606 57.1969 31.847C55.7589 34.788 53.4779 37.087 51.3309 39.474C47.6849 43.525 45.2279 48.168 43.9979 53.475" stroke="white" stroke-width="2"/>
<path d="M35.285 106.183C39.461 103.702 43.532 101.031 48.104 99.275C49.59 98.705 51.108 98.202 52.548 97.532C54.762 96.503 56.931 95.376 59.1 94.252C61.597 92.957 64.042 91.558 66.568 90.322C68.991 89.135 71.212 87.673 73.089 85.757C77.374 81.384 82.084 77.526 87.048 73.96C87.868 73.37 88.633 72.704 89.416 72.064C90.348 71.302 91.124 70.475 91.497 69.24C91.712 68.529 92.296 67.831 92.893 67.352C94.757 65.858 95.207 63.99 94.667 61.766C94.501 61.083 94.359 60.394 94.187 59.616C93.432 60.008 93.294 59.565 93.414 59.016C93.812 57.164 93.236 55.588 92.185 54.1C91.985 53.816 91.986 53.39 91.894 53.03C92.002 52.998 92.11 52.965 92.217 52.931L92.789 53.856C92.713 52.031 90.495 48.219 88.715 46.806L89.175 47.987L88.921 48.141C88.699 47.895 88.418 47.681 88.266 47.398C87.846 46.617 87.429 45.827 87.105 45.003C86.463 43.373 85.294 42.556 83.563 42.385C82.594 42.289 81.637 42.042 80.688 41.81C80.436 41.748 80.232 41.49 79.819 41.181C80.22 41.106 80.34 41.048 80.442 41.071C81.666 41.33 82.878 41.655 84.11 41.857C85.654 42.109 86.696 42.887 87.451 44.28C87.95 45.2 88.783 45.94 89.467 46.761L89.844 46.552C89.696 45.993 89.644 45.384 89.382 44.884C87.895 42.042 86.015 39.465 83.73 37.222C83.09 36.593 82.111 36.311 81.287 35.869L81.082 36.098C81.46 36.61 81.848 37.115 82.209 37.637C82.328 37.809 82.378 38.028 82.46 38.225C82.227 38.166 81.924 38.181 81.773 38.037C81.447 37.722 81.182 37.337 80.92 36.961C80.5501 36.435 80.1959 35.8981 79.858 35.351C79.017 33.98 77.783 33.399 76.208 33.542C74.866 33.665 73.53 33.847 72.188 33.966C71.847 33.995 71.495 33.885 71.147 33.838L71.161 33.502C71.739 33.437 72.315 33.353 72.895 33.308C74.387 33.193 75.884 32.987 77.373 33.038C78.069 33.062 78.968 33.422 79.389 33.941C80.36 35.136 81.706 35.444 83.009 35.97C83.712 34.459 83.736 33.104 82.833 31.608C81.169 28.85 78.605 27.993 75.667 27.929C73.561 27.884 71.449 28.116 69.338 28.171C68.883 28.184 68.344 28.086 67.979 27.839C67.082 27.234 66.126 27.11 65.172 27.443C61.664 28.671 58.597 30.405 56.69 33.875C55.717 35.645 54.253 37.176 52.861 38.675C49.759 42.016 47.146 45.667 45.695 50.007C44.805 52.669 44.236 55.439 43.539 58.164C43.084 59.943 42.736 61.755 42.185 63.502C41.88 64.468 41.399 65.457 40.747 66.221C38.245 69.148 35.238 71.228 31.363 72.122C28.61 72.758 25.956 73.86 23.303 74.878C20.59 75.92 17.935 77.112 15.252 78.236C14.977 78.351 14.694 78.451 14.415 78.558L14.177 78.34C14.345 78.131 14.47 77.818 14.687 77.728C18.789 76.035 22.88 74.312 27.022 72.721C28.784 72.044 30.656 71.651 32.48 71.139C36.098 70.125 38.815 67.862 40.956 64.881C41.451 64.193 41.634 63.251 41.849 62.398C42.5946 59.4291 43.3126 56.4533 44.003 53.471C45.233 48.164 47.691 43.521 51.336 39.47C53.483 37.083 55.765 34.784 57.202 31.843C57.32 31.602 57.514 31.384 57.711 31.195C59.773 29.213 62.132 27.697 64.878 26.863C66.051 26.507 67.225 26.536 68.306 27.312C68.584 27.512 69.054 27.539 69.422 27.504C72.42 27.229 75.407 27.063 78.395 27.653C81.284 28.225 82.999 30.142 84.001 32.703C84.309 33.488 84.013 34.552 83.853 35.464C83.753 36.031 83.787 36.374 84.225 36.811C86.454 39.029 88.293 41.554 89.803 44.308C90.118 44.883 90.397 45.572 90.392 46.205C90.386 47.187 90.681 47.974 91.242 48.742C92.888 50.999 93.633 53.604 94.138 56.309C94.487 58.172 94.929 60.019 95.322 61.874C95.794 64.106 95.373 66.005 93.563 67.603C92.78 68.294 92.35 69.386 91.758 70.295C91.494 70.699 91.301 71.187 90.948 71.488C89.438 72.786 87.94 74.109 86.331 75.275C82.027 78.394 77.937 81.754 74.222 85.562C71.753 88.092 68.856 89.984 65.646 91.475C63.377 92.529 61.148 93.72 59.047 95.076C56.022 97.027 52.666 98.18 49.356 99.445C44.748 101.205 40.528 103.672 36.389 106.307C36.108 106.486 35.719 106.495 35.38 106.582C35.345 106.451 35.315 106.316 35.285 106.183Z" stroke="white" stroke-width="2"/>
</svg>
