<svg width="125" height="124" viewBox="0 0 125 124" fill="none" xmlns="http://www.w3.org/2000/svg">
<path d="M62.1 124C96.3416 124 124.1 96.2417 124.1 62C124.1 27.7583 96.3416 0 62.1 0C27.8583 0 0.0999756 27.7583 0.0999756 62C0.0999756 96.2417 27.8583 124 62.1 124Z" fill="#008000"/>
<path d="M22.359 102.92L23.09 102.541C23.7311 102.208 24.3291 101.849 24.9552 101.474C25.3472 101.239 25.7501 100.997 26.1816 100.751C27.2491 100.142 28.4082 99.5599 29.6705 99.2558C35.8463 97.7666 40.6299 94.0063 45.6315 90.0745C45.7742 89.9623 45.9171 89.85 46.0602 89.7376C48.0091 88.2057 49.8814 86.595 51.7725 84.968C52.5517 84.2977 53.3341 83.6246 54.1264 82.9531L54.1295 82.9505C54.1432 82.939 54.1571 82.9275 54.1706 82.9162C54.1874 82.9023 54.2037 82.8889 54.2184 82.8768C54.2467 82.8535 54.2713 82.8332 54.295 82.8131C54.3026 82.8068 54.3097 82.8007 54.3165 82.7949C54.4368 81.808 54.9422 81.1215 55.4603 80.6042C55.6881 80.3767 55.9374 80.1639 56.151 79.9815C56.1878 79.9501 56.2236 79.9196 56.258 79.89C56.5084 79.675 56.7073 79.4959 56.8689 79.311L56.8691 79.3108C58.0012 78.0158 59.5074 77.2817 61.3051 77.3663C61.3051 77.3663 61.3051 77.3663 61.3051 77.3663C61.3239 77.3494 61.3482 77.3275 61.3714 77.307L61.3738 77.3048C63.0071 75.8694 63.2703 73.3743 61.9478 71.7518L61.9475 71.7514C61.3729 71.0457 60.7173 70.4599 59.9986 69.8178C59.6651 69.5199 59.3181 69.2099 58.9594 68.8701C58.8747 68.79 58.765 68.6924 58.6428 68.5838C58.3695 68.3408 58.0341 68.0426 57.7786 67.7612C57.5339 67.4919 57.4949 67.1865 57.4869 67.0479C57.4781 66.896 57.4975 66.762 57.5091 66.6901C57.5209 66.6173 57.5389 66.5312 57.5451 66.5C57.5522 66.464 57.554 66.451 57.5541 66.4511L57.673 65.0608L58.9543 65.6274C58.9601 65.63 58.9734 65.6354 59.0076 65.6479C59.0322 65.6569 59.0912 65.678 59.1413 65.6975C59.2431 65.737 59.4332 65.8153 59.6168 65.9636C60.3316 66.5378 61.043 67.1182 61.7822 67.722C61.8005 67.6929 61.8187 67.6639 61.8368 67.635C62.2795 66.9298 62.6807 66.2908 63.04 65.6043L63.0401 65.6039C63.3881 64.9396 63.4978 64.3413 63.4318 63.8239C63.367 63.3147 63.122 62.8002 62.6118 62.3068L62.6116 62.3067C61.745 61.4683 60.6835 60.7627 59.5586 60.1023L59.9008 59.5196C59.3306 59.2728 58.8415 59.216 58.2979 59.4232C58.2978 59.4232 58.2977 59.4232 58.2975 59.4233C58.2755 59.4317 58.2533 59.4406 58.2311 59.4498C57.8889 59.5926 57.5769 59.5339 57.4193 59.4904C57.3649 59.4754 57.3131 59.4577 57.2649 59.439L56.9667 60.0354M22.359 102.92L11.7266 78.3881C11.752 78.3747 11.7775 78.3612 11.803 78.3478L11.8118 78.343C12.7333 77.8431 13.5408 77.1572 14.1832 76.3288L14.1848 76.3267C14.2115 76.2921 14.2382 76.2575 14.2649 76.2228C15.4619 74.6706 16.6541 73.1149 17.8439 71.5579C17.8439 71.5579 17.8439 71.5578 17.844 71.5578C18.9119 70.1603 19.9778 68.7617 21.0432 67.3638L21.2012 67.1565C23.5333 64.0966 25.8637 61.0398 28.2124 57.9982L28.2125 57.9981C28.8127 57.2207 29.4733 56.4804 30.1631 55.7167C30.2216 55.652 30.2803 55.5871 30.3391 55.522C30.9109 54.8897 31.5005 54.2376 32.061 53.5575C32.0612 53.5573 32.0613 53.5572 32.0615 53.557C32.1168 53.4898 32.1719 53.4223 32.2267 53.3546C33.0644 52.3182 33.8964 51.1693 34.5167 49.9126L34.5179 49.91C34.544 49.8569 34.5703 49.8039 34.5969 49.7511L35.202 50.0406C35.2025 50.0396 35.2029 50.0387 35.2034 50.0377M22.359 102.92L22.5917 103.71L22.7027 104.087L22.9607 104.964L23.857 104.786C23.9411 104.769 23.9963 104.763 24.0738 104.753C24.1384 104.746 24.2184 104.736 24.3435 104.717C24.5494 104.687 24.8556 104.63 25.1576 104.472L25.1591 104.471C25.954 104.054 26.7401 103.623 27.5181 103.197L27.6428 103.128C28.3807 102.723 29.1113 102.323 29.8472 101.933L29.8482 101.932C30.1398 101.777 30.4861 101.673 30.9434 101.54L30.945 101.54C31.2708 101.445 31.5847 101.374 31.9301 101.297C32.1109 101.256 32.3002 101.213 32.5045 101.164C33.0584 101.031 33.6718 100.86 34.2552 100.566M22.359 102.92L34.2552 100.566M56.9667 60.0354C56.9662 60.0352 56.9657 60.0349 56.9652 60.0346L57.2644 59.4388C57.1647 59.4001 57.0806 59.3574 57.0215 59.326C56.9523 59.2892 56.8751 59.2444 56.8212 59.2132C56.8068 59.2048 56.7941 59.1974 56.7836 59.1914C56.7526 59.1736 56.7293 59.1606 56.7101 59.1504C56.7029 59.1466 56.697 59.1436 56.6923 59.1412L56.6887 59.1395L56.6829 59.1367C56.6816 59.1361 56.681 59.1358 56.681 59.1358L55.7412 58.7294L55.7932 58.6165L55.7954 58.6118L56.1698 57.7994C56.1752 57.7876 56.1851 57.7631 56.2059 57.7038C56.2089 57.6952 56.2125 57.6848 56.2166 57.6731C56.2338 57.6236 56.2592 57.5503 56.2848 57.4843C56.3187 57.397 56.3822 57.2381 56.4983 57.0712C56.4986 57.0708 56.4989 57.0704 56.4992 57.07C56.5746 56.9619 56.672 56.8505 56.7978 56.753C57.2632 56.3918 57.7663 56.0234 58.3083 55.6972L57.9906 55.169C57.9913 55.1686 57.992 55.1682 57.9926 55.1678M56.9667 60.0354C57.217 60.1607 57.4585 60.1811 57.6249 60.1783C57.7885 60.1755 57.9365 60.1485 58.0281 60.1304C58.0924 60.1176 58.1279 60.1099 58.1561 60.1038C58.1867 60.0972 58.2088 60.0924 58.2498 60.085C58.2712 60.0812 58.2839 60.0795 58.2897 60.0789C58.4704 60.0841 58.651 60.0786 58.8014 60.0737L58.8308 60.0727C58.9821 60.0677 59.1054 60.0637 59.2234 60.0653C59.4698 60.0686 59.5492 60.0989 59.5582 60.1023C59.5591 60.1027 59.5593 60.1027 59.5587 60.1024L59.9008 59.5196M56.9667 60.0354C56.4986 59.8014 55.8828 59.3709 55.558 58.737L55.556 58.7331C55.4127 58.4504 55.4081 58.1703 55.4197 58.0022C55.4326 57.8156 55.4751 57.6391 55.5255 57.4885C55.618 57.2122 55.7921 56.8629 56.0661 56.6075L56.069 56.6048C56.6583 56.0599 57.303 55.5783 57.9926 55.1678M57.9926 55.1678C58.9434 54.5962 59.925 54.0895 60.8794 53.6037L60.8797 53.6036C63.9047 52.0657 66.6965 50.2098 69.4 48.0795C72.1832 45.886 75.1502 43.8935 78.0801 41.9261C79.2544 41.1375 80.4228 40.3529 81.5709 39.561C82.128 39.1765 82.6733 38.8147 83.2096 38.4588C84.1403 37.8413 85.044 37.2417 85.9347 36.5732L85.9356 36.5725C86.0016 36.5231 86.1051 36.4109 86.1995 36.2421C86.2934 36.0743 86.3395 35.9198 86.3499 35.8253L86.35 35.8242C86.4265 35.1314 86.1118 34.3347 85.5231 33.7674C84.9454 33.2106 84.2302 32.9874 83.5554 33.1905C80.7216 34.044 78.0253 34.9785 75.515 36.401C71.9978 38.3942 68.4419 40.3742 64.7948 42.1756L64.7947 42.1756C61.8804 43.6147 59.2106 45.4173 56.5487 47.3563C55.4278 48.1731 54.2655 48.9874 53.0437 49.7151M57.9926 55.1678C57.9933 55.1674 57.994 55.167 57.9946 55.1666L58.3098 55.6963L59.9008 59.5196M53.0437 49.7151L52.7391 49.2037C52.3203 49.4406 51.7899 49.5939 51.2258 49.3981C50.7003 49.2158 50.3769 48.8063 50.1743 48.4256C50.1742 48.4256 50.1742 48.4256 50.1742 48.4255C50.14 48.3613 50.1092 48.2978 50.0815 48.2364L50.0813 48.2359C49.3704 46.6586 49.3816 45.0853 49.8158 43.5679L49.2378 43.3742M53.0437 49.7151C52.4988 50.0399 51.799 50.3332 51.0569 50.0972C50.3374 49.8684 49.9198 49.2451 49.639 48.7029L49.6388 48.7026C48.757 46.9985 48.6335 45.1756 49.2378 43.3742M53.0437 49.7151C53.0438 49.7151 53.0439 49.715 53.044 49.715L52.7392 49.2036L49.8158 43.5678L49.2379 43.3739C49.2378 43.374 49.2378 43.3741 49.2378 43.3742M49.2378 43.3742C51.5798 36.3872 53.9844 29.3283 57.5283 22.7079C58.2597 21.3308 58.9255 19.9197 59.5234 18.4796L59.524 18.4781C59.7519 17.9317 59.8801 17.3494 59.8483 16.8817C59.781 15.9095 59.3628 15.3484 58.9163 15.1029C58.4762 14.861 57.7997 14.8108 56.9631 15.2939L56.9626 15.2942C56.2172 15.7242 55.5099 16.463 54.9387 17.2746L54.9385 17.2748C50.0766 24.1775 45.3131 30.9964 42.1477 38.7442L42.1474 38.7448C41.8817 39.3939 41.5517 40.0836 41.2381 40.7388C41.0362 41.1608 40.8411 41.5684 40.6745 41.9416C39.7925 43.9359 38.5406 45.745 36.985 47.2731M36.985 47.2731C36.9849 47.2732 36.9848 47.2733 36.9847 47.2734L36.5249 46.8052C35.7746 47.7106 35.128 48.6981 34.5979 49.7492L35.2047 50.0348C35.2043 50.0358 35.2038 50.0368 35.2034 50.0377M36.985 47.2731C36.2725 47.9769 35.7162 48.966 35.2034 50.0377M36.985 47.2731C36.9855 47.2726 36.9859 47.2722 36.9864 47.2717L36.5254 46.8046M35.2034 50.0377C34.5216 51.4855 33.6217 52.8201 32.5351 53.995L32.5336 53.9966C27.7165 59.1823 23.5062 64.8606 19.2577 70.5904C18.9364 71.0237 18.6149 71.4574 18.2928 71.8911L18.2927 71.8913C17.9376 72.3694 17.5828 72.8428 17.2296 73.3142C16.4078 74.4109 15.594 75.4969 14.8017 76.6062C14.0756 77.6227 13.1813 78.4278 12.0157 78.989L40.089 41.6814C39.9459 41.9642 39.8005 42.246 39.6525 42.5264M36.5254 46.8046C36.7075 46.5849 36.8957 46.37 37.0899 46.1602L37.0924 46.1575C38.0984 45.0623 38.9589 43.8419 39.6525 42.5264M36.5254 46.8046L36.284 46.56M36.5254 46.8046L36.284 46.56M39.6525 42.5264L39.3615 42.373L17.4899 71.295C17.8138 70.8588 18.1374 70.4223 18.461 69.9859C21.5295 65.8474 24.5981 61.7086 27.8995 57.7565C27.8995 57.7565 27.8995 57.7565 27.8995 57.7565C29.1617 56.2456 30.4578 54.7619 31.8009 53.316C31.8548 53.2577 31.9082 53.1991 31.9611 53.14C32.8682 52.1266 33.6298 50.9917 34.2239 49.7681C34.2242 49.7675 34.2244 49.7669 34.2247 49.7664C34.2501 49.7141 34.2752 49.6616 34.2999 49.609C34.8209 48.52 35.4389 47.394 36.284 46.56M39.6525 42.5264C39.6524 42.5265 39.6524 42.5267 39.6523 42.5268L39.3614 42.3732C38.6956 43.673 37.8577 44.8772 36.8702 45.9534C36.8696 45.9541 36.8691 45.9547 36.8685 45.9553C36.6791 46.1617 36.4842 46.3633 36.284 46.56M35.6207 44.8032C36.5098 43.835 37.2703 42.7563 37.8834 41.5936L37.8836 41.5932C38.9596 39.5546 39.8969 37.432 40.848 35.2781L40.8582 35.255L40.8583 35.2548C43.9084 28.3519 48.2321 22.2448 52.4867 16.2355C52.7201 15.9058 52.9533 15.5764 53.1861 15.2471L35.6207 44.8032ZM35.6207 44.8032C34.4546 46.0634 33.4783 47.4869 32.7226 49.0287C32.1969 50.0934 31.4692 51.1101 30.6712 52.0974L31.1823 52.5105L30.6712 52.0974C30.0988 52.8055 29.4856 53.4838 28.8506 54.1861C28.7936 54.2492 28.7364 54.3125 28.679 54.376C27.9907 55.1381 27.2823 55.9302 26.6295 56.7758L35.6207 44.8032ZM12.6019 75.1043C14.8961 72.1298 17.1735 69.1417 19.4529 66.151L19.6105 65.9442C21.9421 62.8849 24.2762 59.8232 26.6294 56.7759L12.6019 75.1043ZM12.6019 75.1043C12.1304 75.712 11.538 76.2155 10.8622 76.5828C9.15909 77.4846 7.43243 78.3219 5.68773 79.1681C4.95788 79.522 4.22487 79.8775 3.48911 80.2399L3.48884 80.24C3.29758 80.3343 3.09026 80.4603 2.93977 80.5517C2.89118 80.5813 2.84852 80.6072 2.81423 80.6273L2.22436 80.9731L2.33254 81.6482L2.38254 81.9602L2.52748 82.8647L3.44119 82.7994C3.49243 82.7958 3.51501 82.7967 3.55541 82.7983C3.59729 82.8 3.65833 82.8024 3.7903 82.8013C3.95564 82.8 4.27602 82.7898 4.59782 82.634L4.59853 82.6336C5.77398 82.0632 6.91747 81.4967 8.05674 80.9322L12.6019 75.1043ZM59.9008 59.5196C60.2156 59.6559 60.555 59.8501 60.942 60.0899C61.8018 60.6231 62.5324 61.1689 63.0764 61.8263C63.0764 61.8263 63.0764 61.8263 63.0764 61.8264C63.4023 62.2203 63.6612 62.6543 63.8408 63.1497L63.8409 63.15C64.1753 64.0718 64.0747 64.9819 63.5914 65.891L59.9008 59.5196ZM34.2552 100.566C36.5003 99.4436 38.6918 98.2168 40.8226 96.8898L40.8247 96.8885C44.7864 94.4075 48.3404 91.3406 51.8259 88.3329C53.2487 87.1051 54.6601 85.8872 56.0832 84.723L56.0837 84.7225C56.5021 84.3797 56.8563 83.7962 56.9226 83.2095C56.9762 82.7362 57.2364 82.4295 57.8472 82.1128C58.8836 81.5755 59.8802 81.0648 60.9044 80.6614C63.098 79.7975 64.6202 77.8838 65.1881 75.7986C65.7575 73.7077 65.3899 71.3343 63.6493 69.6281C63.6657 69.597 63.6889 69.5575 63.7213 69.5087C64.3082 68.6478 64.8518 67.7583 65.3501 66.8433L65.3502 66.8433L65.3545 66.8353C66.0694 65.4935 66.2741 63.9929 65.721 62.468C65.0042 60.4903 63.4687 59.3034 61.9959 58.3901L61.9956 58.3899C61.3211 57.972 60.4725 57.4681 59.4749 57.3311C59.5282 57.3004 59.5817 57.2704 59.6353 57.2412L59.6357 57.2409L59.6749 57.2196C63.7058 55.0213 67.7885 52.7947 71.5038 49.7817L71.504 49.7815C74.288 47.5226 77.2758 45.5643 80.3125 43.574C81.68 42.6777 83.0575 41.7749 84.4307 40.8353L84.4308 40.8352C84.6432 40.6898 84.86 40.5432 85.0793 40.3948C85.9511 39.8053 86.864 39.188 87.7139 38.5041M34.2552 100.566L73.8494 34.347C76.6581 32.6193 79.6959 31.5726 82.7337 30.6962L82.7339 30.6961C84.6696 30.138 86.3948 30.8526 87.5173 32.0539C88.6143 33.228 89.2104 34.9406 88.8923 36.5563M87.7139 38.5041C87.7138 38.5041 87.7137 38.5042 87.7136 38.5043L87.3222 38.0176M87.7139 38.5041L87.3223 38.0175M87.7139 38.5041C88.2891 38.0414 88.7496 37.2843 88.8923 36.5563M87.3222 38.0176C87.3222 38.0175 87.3223 38.0175 87.3223 38.0175M87.3222 38.0176L87.0869 37.725C87.0271 37.7731 86.967 37.8209 86.9067 37.8683L87.1352 38.1728M87.3222 38.0176C87.2624 38.0722 87.2001 38.1242 87.1352 38.1728M87.3223 38.0175C87.579 37.7828 87.788 37.499 87.9449 37.2186C88.0778 36.981 88.1917 36.7131 88.2649 36.4338M87.3223 38.0175L88.2649 36.4338M88.8923 36.5563C88.8922 36.5567 88.8921 36.557 88.8921 36.5574L88.2649 36.4338M88.8923 36.5563L88.265 36.4334C88.2986 36.305 88.3236 36.1741 88.338 36.0427C88.338 36.0431 88.3379 36.0434 88.3379 36.0437L87.9626 36.0023C87.9626 36.0021 87.9626 36.0019 87.9627 36.0017L88.2649 36.4338M54.4774 45.6274C58.2647 42.5751 62.5518 40.3392 66.7356 38.1572C67.7341 37.6365 68.7267 37.1188 69.7052 36.5938L69.7053 36.5937C70.153 36.3536 70.5925 36.1254 71.0248 35.9009C71.9974 35.3958 72.9341 34.9094 73.849 34.3472L53.1864 15.2467C53.8301 14.3354 54.732 13.5698 55.6383 13.02L55.6393 13.0194C57.1527 12.1039 59.0155 11.8958 60.6544 13.1609M54.4774 45.6274C54.4775 45.6274 54.4775 45.6273 54.4775 45.6273L54.8638 46.1068M54.4774 45.6274L54.8638 46.1068M54.4774 45.6274C53.9345 46.0649 53.3728 46.4224 52.761 46.8119C52.4814 46.9899 52.1914 47.1745 51.8879 47.3764M54.8638 46.1068C53.9669 46.7506 53.0668 47.3665 52.1423 47.9237L51.8598 47.5018C51.867 47.5038 51.8742 47.5061 51.8814 47.5086C51.9206 47.5222 51.9506 47.5394 51.9708 47.5537C51.9902 47.5675 51.9977 47.5766 51.9951 47.5737C51.9924 47.5706 51.9817 47.5578 51.9649 47.5305C51.9483 47.5033 51.9277 47.4651 51.9044 47.4135C51.8988 47.4012 51.8933 47.3888 51.8879 47.3764M54.8638 46.1068C55.033 45.9854 55.202 45.863 55.371 45.7398L55.3712 45.7397L54.0765 35.5368L54.6107 35.7631C54.6107 35.7631 54.6107 35.7632 54.6106 35.7632M51.8879 47.3764C51.379 46.221 51.4117 45.0443 51.85 43.7639M51.8879 47.3764C51.8622 47.3935 51.8363 47.4108 51.8104 47.4281C51.7661 47.4578 51.7339 47.4751 51.7136 47.4847C51.6997 47.4911 51.6929 47.4932 51.6929 47.4932C51.6929 47.4932 51.6944 47.4928 51.6972 47.4921C51.7046 47.4904 51.72 47.4875 51.7422 47.4868L51.3541 47.6619C50.7816 46.4855 50.7129 45.2652 51.134 44.01L51.1341 44.0098C51.1833 43.863 51.2325 43.7162 51.2817 43.5695L51.8499 43.7643C51.8499 43.7642 51.85 43.764 51.85 43.7639M51.85 43.7639C52.1618 42.8545 52.4486 41.9584 52.7317 41.0739C53.3126 39.259 53.8777 37.4933 54.6106 35.7632M51.85 43.7639L51.2818 43.5694C52.1878 40.8691 53.0986 38.1849 54.0765 35.5368L54.6106 35.7632M54.6106 35.7632C55.8507 32.8377 57.1756 29.9678 58.5082 27.0811C59.2627 25.4468 60.0196 23.8071 60.765 22.149L60.7651 22.1488C60.791 22.0913 60.8169 22.0336 60.843 21.9757C61.3881 20.7635 61.9807 19.4458 62.3389 18.064L62.339 18.0639C62.8253 16.1878 62.2316 14.3765 60.6544 13.1609M60.6544 13.1609C60.6547 13.1611 60.6549 13.1613 60.6552 13.1615L60.2994 13.6223M60.6544 13.1609L60.299 13.622C60.167 13.5221 60.0271 13.4313 59.8798 13.3503C58.7108 12.7076 57.2828 12.801 55.9664 13.56C55.9663 13.5601 55.9661 13.5601 55.966 13.5602L60.2994 13.6223M60.2994 13.6223C61.2104 14.3116 61.7529 15.4335 61.8436 16.744L61.8436 16.7449C61.8704 17.1368 61.8389 17.5334 61.7692 17.9162C61.6824 18.3928 61.5365 18.8483 61.3702 19.2472L60.2994 13.6223ZM87.1352 38.1728C87.1349 38.173 87.1346 38.1732 87.1343 38.1735L86.9061 37.8687M87.1352 38.1728L86.9061 37.8687M86.9061 37.8687C86.1447 38.4668 85.3401 39.011 84.5359 39.555C84.3123 39.7063 84.0886 39.8576 83.866 40.01C83.4167 40.3174 82.9652 40.622 82.5121 40.9247C82.512 40.9247 82.512 40.9247 82.5119 40.9248C81.6167 41.5229 80.7154 42.1136 79.8141 42.7044C76.7562 44.7088 73.6983 46.7133 70.8739 49.005C70.7223 49.128 70.57 49.2497 70.417 49.3701C70.417 49.3701 70.417 49.3701 70.417 49.3701L86.9061 37.8687ZM83.7253 39.3171C83.6488 39.3678 83.5724 39.4186 83.496 39.4694L87.3439 35.934C87.3331 36.0329 87.3116 36.1358 87.2809 36.2398C87.2809 36.24 87.2808 36.2403 87.2807 36.2405C87.1736 36.6032 86.9554 36.9779 86.6936 37.2358C86.6935 37.2358 86.6935 37.2359 86.6934 37.2359C86.6421 37.2864 86.5891 37.3324 86.5349 37.373C85.6248 38.0561 84.6751 38.6865 83.7253 39.3171ZM83.4959 39.4694C83.0415 39.7713 82.5877 40.0743 82.1389 40.384L83.4959 39.4694Z" fill="#008000" stroke="white" stroke-width="2"/>
<path d="M22.3546 102.923L23.0899 102.541C23.7304 102.208 24.3277 101.85 24.9532 101.475C25.3454 101.239 25.7486 100.998 26.1804 100.751C27.2475 100.143 28.4062 99.5605 29.6676 99.2569C35.8431 97.768 40.625 94.0089 45.6255 90.078C45.7692 89.965 45.9131 89.8519 46.0573 89.7386C48.0063 88.2074 49.8781 86.5968 51.7696 84.9694C52.5486 84.299 53.331 83.6258 54.1234 82.9542L54.1247 82.9531C54.1557 82.9269 54.1877 82.9005 54.2147 82.8783C54.2433 82.8547 54.268 82.8343 54.292 82.814C54.2996 82.8076 54.3068 82.8015 54.3136 82.7957C54.434 81.8087 54.9397 81.1223 55.4578 80.6051C55.6854 80.378 55.9343 80.1654 56.1477 79.9833C56.1848 79.9516 56.2208 79.9209 56.2554 79.8911C56.5057 79.6762 56.7044 79.4972 56.8656 79.3124L56.8661 79.3118C57.9983 78.0169 59.5045 77.2828 61.3022 77.3673C61.3126 77.358 61.3246 77.3471 61.3372 77.3358C61.3475 77.3267 61.358 77.3172 61.3684 77.308L61.371 77.3057C63.0052 75.8703 63.2682 73.3755 61.9451 71.753L61.9449 71.7528C61.3693 71.0467 60.7133 70.4604 59.9944 69.8179C59.6614 69.5202 59.3148 69.2105 58.9564 68.8711C58.8718 68.791 58.762 68.6934 58.6398 68.5848C58.3666 68.3418 58.0311 68.0436 57.7756 67.7622L57.7747 67.7611C57.5306 67.4915 57.4918 67.1864 57.484 67.0465C57.4755 66.8947 57.4951 66.7608 57.5068 66.6894C57.5185 66.618 57.5368 66.5305 57.5425 66.5014C57.5482 66.4723 57.5503 66.4591 57.5508 66.4562L57.6629 65.0587L58.9514 65.6284C58.9572 65.631 58.9704 65.6364 59.0046 65.649C59.0293 65.658 59.0883 65.6791 59.1384 65.6985C59.2402 65.7381 59.4301 65.8163 59.6136 65.9645C60.3284 66.5379 61.0401 67.1189 61.7791 67.7228C61.7995 67.6904 61.8197 67.6581 61.8399 67.626C62.2802 66.9245 62.6792 66.289 63.037 65.6053L63.0372 65.605C63.3851 64.9409 63.4946 64.3426 63.4286 63.8251C63.3636 63.3157 63.1184 62.8011 62.6085 62.3076C61.7419 61.4692 60.6805 60.7637 59.5557 60.1034L59.8977 59.5208C59.3279 59.2744 58.8386 59.2176 58.295 59.4243C58.2949 59.4243 58.2947 59.4244 58.2946 59.4244C58.2724 59.4329 58.25 59.4418 58.2276 59.4511L58.224 59.4526C57.882 59.5935 57.5708 59.5339 57.4145 59.4904C57.3612 59.4755 57.3103 59.4581 57.2629 59.4397L56.9657 60.0374C56.9654 60.0372 56.9651 60.0371 56.9647 60.0369M22.3546 102.923L36.5219 46.8063C35.7716 47.7117 35.125 48.6992 34.5949 49.7504M22.3546 102.923L22.5935 103.716C22.6285 103.833 22.662 103.95 22.6937 104.067L22.9385 104.972L23.8573 104.786C23.9398 104.769 23.9958 104.763 24.0753 104.753C24.1395 104.745 24.219 104.736 24.3401 104.718C24.5447 104.687 24.8508 104.631 25.1524 104.474L25.1559 104.472C25.9515 104.055 26.7379 103.624 27.5159 103.198L27.6608 103.118C28.3919 102.717 29.1157 102.32 29.8445 101.934L29.8452 101.933C30.1369 101.778 30.4832 101.674 30.9405 101.541L30.9412 101.541C31.266 101.447 31.5784 101.377 31.9219 101.299C32.1042 101.258 32.2954 101.215 32.5018 101.166C33.0567 101.032 33.6708 100.86 34.2548 100.566M22.3546 102.923L55.447 83.95M56.9647 60.0369C56.9644 60.0368 56.9641 60.0366 56.9638 60.0364L57.2623 59.4395C57.1622 59.4007 57.0778 59.3578 57.0185 59.3263C56.9506 59.2902 56.874 59.2458 56.8205 59.2148C56.8056 59.2062 56.7925 59.1986 56.7818 59.1925C56.751 59.1749 56.728 59.1621 56.7091 59.1521C56.7044 59.1497 56.7003 59.1475 56.6967 59.1457C56.6934 59.144 56.6906 59.1426 56.6881 59.1415C56.6831 59.139 56.6809 59.1381 56.6811 59.1382L55.7368 58.7335L55.7903 58.6175L55.7924 58.6128L56.1668 57.8005C56.1724 57.7884 56.1823 57.7638 56.2031 57.7046C56.2189 57.6597 56.2503 57.5669 56.282 57.4854C56.3161 57.3975 56.3797 57.239 56.4956 57.0724C56.4958 57.072 56.4961 57.0716 56.4964 57.0712C56.5717 56.9631 56.6691 56.8517 56.7947 56.7542L56.7949 56.7541C57.2602 56.3928 57.7634 56.0244 58.3053 55.6983L57.9877 55.17C57.9884 55.1696 57.989 55.1692 57.9897 55.1688M56.9647 60.0369C56.4938 59.8025 55.8793 59.3708 55.555 58.738L55.5531 58.7342C55.4098 58.4515 55.4052 58.1713 55.4168 58.0032C55.4297 57.8167 55.4722 57.6401 55.5226 57.4895C55.6151 57.2132 55.7892 56.8639 56.0632 56.6085L56.0661 56.6058C56.6554 56.0609 57.3001 55.5793 57.9897 55.1688M56.9647 60.0369C57.2146 60.1616 57.4556 60.1821 57.6223 60.1793C57.786 60.1765 57.934 60.1495 58.0257 60.1314C58.0902 60.1186 58.1256 60.1109 58.1538 60.1048C58.1842 60.0982 58.2062 60.0934 58.2472 60.086C58.2684 60.0822 58.281 60.0806 58.2868 60.0799C58.4675 60.0852 58.6481 60.0796 58.7985 60.0747L58.8276 60.0737C58.9791 60.0688 59.1025 60.0647 59.2205 60.0663C59.4669 60.0696 59.5463 60.0999 59.5552 60.1033C59.5562 60.1037 59.5563 60.1037 59.5558 60.1034L59.8978 59.5209L58.3069 55.6973L57.9917 55.1676C57.991 55.168 57.9904 55.1684 57.9897 55.1688M57.9897 55.1688C58.9405 54.5972 59.922 54.0905 60.8765 53.6048L60.8768 53.6046C63.9017 52.0668 66.6925 50.2109 69.3972 48.0805C72.177 45.8896 75.1409 43.8992 78.0672 41.934C79.2451 41.1431 80.4169 40.3562 81.5681 39.5619L81.5683 39.5618C82.1219 39.18 82.6639 38.8205 83.1969 38.4671C84.1315 37.8473 85.0382 37.2459 85.9311 36.5747L85.9317 36.5743C85.9976 36.5248 86.1014 36.4121 86.1963 36.2426C86.2906 36.0741 86.3367 35.9196 86.347 35.8261L86.347 35.8258C86.4232 35.132 86.1082 34.3351 85.5198 33.768C84.9423 33.2115 84.2273 32.9883 83.5523 33.1916L83.552 33.1917C80.718 34.0439 78.0225 34.9795 75.512 36.402C71.9949 38.3953 68.439 40.3752 64.7919 42.1766C61.8784 43.6158 59.2076 45.4184 56.5458 47.3573C55.4254 48.1745 54.2623 48.9886 53.0407 49.7162M53.0407 49.7162L52.7361 49.2048C52.3174 49.4417 51.787 49.5949 51.2228 49.3991C50.6974 49.2168 50.374 48.8073 50.1713 48.4267C50.1713 48.4266 50.1713 48.4266 50.1713 48.4266C50.1371 48.3623 50.1063 48.2989 50.0786 48.2375L50.0783 48.2369C49.3674 46.6597 49.3787 45.0864 49.8128 43.5691C49.8128 43.569 49.8128 43.569 49.8128 43.5689C49.8561 43.4178 49.9036 43.2671 49.9549 43.1171L49.9551 43.1167C50.2381 42.2913 50.511 41.4394 50.7874 40.5765C51.3844 38.7127 51.9981 36.7971 52.7662 34.9839L52.7663 34.9838C54.0167 32.0338 55.3674 29.1076 56.7104 26.1981C57.1961 25.1457 57.6809 24.0955 58.1596 23.0471L57.5249 22.7099C57.525 22.7096 57.5252 22.7093 57.5254 22.7089M53.0407 49.7162C52.4959 50.0409 51.796 50.3342 51.054 50.0983C50.3344 49.8695 49.9169 49.2462 49.636 48.7039L49.6359 48.7036C48.7538 46.9991 48.6318 45.1763 49.2348 43.3755L49.2349 43.3752C51.5768 36.3882 53.9814 29.3294 57.5254 22.7089M53.0407 49.7162C53.0408 49.7161 53.0409 49.7161 53.041 49.716L52.7362 49.2047L40.6719 41.942M57.5254 22.7089C57.5257 22.7083 57.5261 22.7077 57.5264 22.7071L58.16 23.0462C58.4214 22.4736 58.681 21.9016 58.9379 21.33L58.9381 21.3297L58.9787 21.2394C59.3709 20.368 59.7466 19.5334 60.046 18.6988C60.0462 18.6983 60.0464 18.6978 60.0465 18.6974C60.1817 18.3204 60.3014 17.9434 60.4 17.5631C60.4644 17.3145 60.4983 17.0722 60.5015 16.8376L59.8454 16.883M57.5254 22.7089C58.2568 21.3318 58.9226 19.9208 59.5204 18.4806L59.5218 18.4773C59.7493 17.9347 59.8771 17.3525 59.8454 16.883M59.8454 16.883C59.8454 16.8827 59.8453 16.8823 59.8453 16.882L60.5015 16.8373C60.5125 16.0245 60.1559 15.3051 59.4306 14.7461L59.4301 14.7457C58.6002 14.1053 57.6643 14.1314 56.6723 14.7312C56.663 14.7369 56.6537 14.7425 56.6444 14.7483C56.6443 14.7483 56.6443 14.7483 56.6442 14.7484C55.9294 15.1866 55.2633 15.7697 54.8169 16.4019L54.8165 16.4023C54.6923 16.578 54.5681 16.7536 54.4439 16.9291C54.4438 16.9292 54.4437 16.9293 54.4437 16.9294C54.3473 17.0656 54.2509 17.2018 54.1545 17.338C49.8708 23.3897 45.6533 29.3479 42.6847 36.0643L42.668 36.102C42.314 36.9037 41.9574 37.7114 41.5913 38.5189L42.1449 38.7448C42.1449 38.7449 42.1448 38.745 42.1448 38.7452M59.8454 16.883C59.7782 15.9107 59.3599 15.3494 58.9134 15.104C58.4733 14.862 57.7968 14.8118 56.9601 15.295L56.9597 15.2952C56.214 15.7254 55.5069 16.4633 54.9361 17.2752L54.9356 17.2759C50.0726 24.1796 45.3092 30.9984 42.1448 38.7452M42.1448 38.7452L41.5912 38.519C41.1111 39.578 40.6146 40.6367 40.0865 41.6812L40.6727 41.9402C40.6724 41.9408 40.6722 41.9414 40.6719 41.942M42.1448 38.7452C41.8787 39.3973 41.5472 40.0894 41.2326 40.7461C41.0316 41.1658 40.8375 41.571 40.6719 41.942M40.6719 41.942C40.6717 41.9425 40.6714 41.9431 40.6712 41.9436L40.0859 41.6824C39.9428 41.9653 39.7975 42.2471 39.6495 42.5277C38.9559 43.843 38.0954 45.0634 37.0895 46.1585L37.0869 46.1613C36.8927 46.3711 36.7045 46.586 36.5223 46.8058L36.9831 47.2732C36.9828 47.2734 36.9826 47.2736 36.9824 47.2738C36.2689 47.9775 35.7136 48.9664 35.2002 50.0392M35.2002 50.0392C35.2007 50.0382 35.2012 50.0372 35.2016 50.0362L34.5949 49.7504M35.2002 50.0392C35.1999 50.04 35.1995 50.0408 35.1991 50.0416L34.594 49.7521M35.2002 50.0392L34.594 49.7521M34.5949 49.7504L34.297 49.61M34.5949 49.7504C34.5946 49.7509 34.5943 49.7515 34.594 49.7521M34.297 49.61C34.2722 49.6626 34.2471 49.7151 34.2217 49.7674C34.2215 49.7679 34.2212 49.7685 34.2209 49.7691C33.6265 50.9925 32.865 52.1272 31.9583 53.1408L32.2239 53.3554C32.2239 53.3555 32.2238 53.3556 32.2237 53.3556L31.9581 53.141C31.9052 53.2001 31.8519 53.2588 31.798 53.317C30.4549 54.7629 29.1588 56.2466 27.8967 57.7576C24.6006 61.7035 21.5366 65.8356 18.473 69.9669C18.1445 70.4101 17.8159 70.8532 17.487 71.296L34.297 49.61ZM34.297 49.61L34.594 49.7521M61.7832 55.3874C60.9419 55.8156 60.1232 56.2383 59.3354 56.6966C59.3353 56.6966 59.3353 56.6966 59.3352 56.6967C59.229 56.7584 59.1234 56.8208 59.0183 56.884L59.0143 56.8864C58.77 57.0318 58.5326 57.1879 58.3026 57.3544C58.7118 57.2814 59.1018 57.2818 59.4713 57.3325M61.7832 55.3874L64.8088 66.5331C64.8089 66.533 64.8089 66.5328 64.809 66.5327C65.306 65.5839 65.5404 64.5748 65.4125 63.572C65.3725 63.2588 65.2982 62.9545 65.191 62.6607L65.7184 62.47C65.7183 62.4697 65.7182 62.4693 65.7181 62.469M61.7832 55.3874C64.9464 53.7793 67.8475 51.8471 70.6348 49.6516L70.635 49.6514C70.7895 49.5296 70.9445 49.4086 71.0999 49.2882C73.6775 47.2915 76.3808 45.4762 79.1163 43.6392C80.3086 42.8386 81.507 42.0339 82.7038 41.2082C83.1402 40.9072 83.5952 40.604 84.0583 40.2964C84.0583 40.2964 84.0583 40.2964 84.0583 40.2964C84.1143 40.2592 84.1704 40.222 84.2265 40.1847C85.1981 39.5398 86.1991 38.8753 87.1323 38.1738C87.1325 38.1736 87.1327 38.1735 87.1329 38.1733L86.9042 37.8691C86.9644 37.8217 87.0244 37.7741 87.084 37.726C87.4987 37.3734 87.7878 36.8959 87.908 36.365C87.9316 36.2454 87.9487 36.1246 87.9597 36.003L88.335 36.0443C88.4898 34.6361 87.8658 33.2514 86.9077 32.328L61.7832 55.3874ZM59.4713 57.3325C59.0946 57.5496 58.7251 57.8035 58.3532 58.081C58.4609 58.0838 58.5814 58.0807 58.7332 58.0758L58.7711 58.0745C58.9121 58.0698 59.0806 58.0643 59.2473 58.0665C59.5895 58.0711 60.1027 58.1054 60.5682 58.3786L60.5683 58.3787C60.9118 58.5803 61.2597 58.7917 61.606 59.015C62.4406 59.5533 63.2662 60.1611 63.9993 60.8703L63.9995 60.8705C64.5496 61.4029 64.952 62.0055 65.1909 62.6603L65.7181 62.469M59.4713 57.3325C60.4689 57.4693 61.3176 57.9727 61.9927 58.391L61.9927 58.391C63.4662 59.304 65.0021 60.49 65.7181 62.469M59.4713 57.3325C59.5249 57.3016 59.5785 57.2715 59.6324 57.2422L59.6328 57.242L59.6842 57.2139C63.711 55.0179 67.7893 52.7937 71.501 49.7826L71.5011 49.7825C74.2871 47.5219 77.2771 45.5622 80.3163 43.5703C81.6815 42.6756 83.0566 41.7743 84.4277 40.8364L84.4278 40.8362C84.6414 40.69 84.8594 40.5427 85.0801 40.3935C85.9508 39.8048 86.8632 39.1879 87.7113 38.5048L87.7217 38.4965L87.7318 38.4878C88.3113 37.9951 88.7153 37.3277 88.8833 36.5859L88.8864 36.5722L88.8891 36.5584C89.2077 34.9424 88.6116 33.2293 87.5143 32.0549C86.3919 30.8536 84.6667 30.139 82.731 30.6972L82.7308 30.6972C79.6927 31.5737 76.6538 32.6215 73.8462 34.3482C72.9323 34.9102 71.9958 35.3964 71.0233 35.9013C70.5905 36.126 70.1506 36.3544 69.7023 36.5948L69.7022 36.5948C68.7233 37.1201 67.7302 37.638 66.7313 38.1589C62.5482 40.3404 58.2622 42.5757 54.4745 45.6284L54.474 45.6288C53.929 46.0687 53.364 46.4281 52.7486 46.8196C52.4719 46.9957 52.1849 47.1783 51.885 47.3775C51.3761 46.2221 51.4087 45.0454 51.8471 43.7649C52.1589 42.8555 52.4457 41.9594 52.7288 41.075C53.3097 39.26 53.8748 37.4943 54.6077 35.7643C55.8478 32.8387 57.1727 29.9688 58.5053 27.0821C59.2597 25.4479 60.0166 23.8084 60.7619 22.1504C60.7842 22.1008 60.8066 22.0511 60.8291 22.0012C61.3784 20.7814 61.9754 19.456 62.336 18.065L62.336 18.0649C62.8223 16.189 62.2288 14.3779 60.6519 13.1623C59.0121 11.8969 57.1502 12.1046 55.6364 13.0204L55.6354 13.021C54.7291 13.5708 53.8271 14.3365 53.1835 15.2477L63.7208 69.5061M65.7181 62.469C66.2712 63.9939 66.0665 65.4946 65.3515 66.8363L65.3512 66.8369C64.8536 67.7692 64.2889 68.6565 63.7208 69.5061M63.7208 69.5061L63.2286 69.1776L63.7208 69.5061ZM63.7208 69.5061C63.7206 69.5064 63.7205 69.5066 63.7203 69.5069L63.2284 69.178L61.4075 79.3794C61.3681 79.3756 61.3289 79.3724 61.2899 79.3698C61.0496 79.5071 60.7977 79.6285 60.535 79.732C59.7454 80.043 58.9766 80.4124 58.2166 80.7979C57.9958 81.0289 57.7636 81.2322 57.5584 81.4084C57.5398 81.4244 57.5213 81.4402 57.5031 81.4558C57.5031 81.4559 57.503 81.4559 57.5029 81.456C57.4798 81.4758 57.4571 81.4952 57.4347 81.5144C57.2199 81.6981 57.0386 81.8531 56.8707 82.0207C56.5061 82.3846 56.3158 82.7005 56.2898 83.139L56.9197 83.2099C56.9197 83.2101 56.9197 83.2103 56.9197 83.2104M63.7208 69.5061C63.6871 69.5566 63.6632 69.5972 63.6464 69.6291M10.8593 76.5838C11.5351 76.2165 12.1274 75.7131 12.5989 75.1053C14.9007 72.1211 17.1855 69.1234 19.4723 66.123L19.6076 65.9456C21.9392 62.8864 24.2733 59.8247 26.6265 56.7769C27.2794 55.9312 27.9878 55.1392 28.6761 54.3774C28.7324 54.3151 28.7885 54.2531 28.8444 54.1913C29.4805 53.4878 30.0948 52.8084 30.6681 52.0986L30.6683 52.0984C31.4663 51.1112 32.194 50.0945 32.7197 49.0297C33.4754 47.4879 34.4517 46.0645 35.6178 44.8042C36.5069 43.8361 37.2674 42.7573 37.8804 41.5946L37.8806 41.5944C38.9594 39.5497 39.8987 37.4224 40.8521 35.2632L40.8552 35.2561L40.8554 35.2558C43.9077 28.35 48.2329 22.2408 52.4891 16.229C52.7207 15.9018 52.9521 15.5749 53.1832 15.2482L10.8593 76.5838ZM10.8593 76.5838C9.16243 77.4823 7.44301 78.3162 5.70489 79.1591C4.96907 79.516 4.22991 79.8745 3.48769 80.2402M10.8593 76.5838L3.48769 80.2402M3.48769 80.2402C3.29468 80.3345 3.08385 80.463 2.93394 80.5544C2.88596 80.5836 2.84422 80.609 2.8113 80.6283L2.22143 80.9741L2.32961 81.6492L2.37961 81.9612L2.52455 82.8657L3.43826 82.8005C3.48949 82.7968 3.51207 82.7977 3.55247 82.7993C3.59435 82.801 3.65539 82.8034 3.78734 82.8024C3.95267 82.801 4.27307 82.7909 4.59489 82.635L4.59589 82.6345C5.75482 82.0717 6.88631 81.5112 8.01373 80.9527C9.33971 80.2959 10.6601 79.6419 12.0128 78.99C12.0129 78.99 12.013 78.9899 12.0131 78.9899L11.7236 78.3892C11.7491 78.3757 11.7746 78.3623 11.8 78.3488L11.8088 78.344C12.7303 77.8442 13.5379 77.1582 14.1803 76.3298L14.1818 76.3278C14.2085 76.2931 14.2353 76.2585 14.262 76.2239C15.459 74.6716 16.6512 73.1159 17.841 71.559C17.841 71.559 17.8411 71.559 17.8411 71.5589C18.9161 70.1522 19.9891 68.7444 21.0616 67.3372L21.1982 67.158C23.5303 64.0981 25.8607 61.0413 28.2095 57.9992L28.2096 57.9991C28.8097 57.2218 29.4702 56.4818 30.1601 55.7182C30.2176 55.6546 30.2753 55.5908 30.3332 55.5268C30.9058 54.8936 31.4966 54.2403 32.0581 53.5586C32.0583 53.5584 32.0585 53.5582 32.0587 53.5579L3.48769 80.2402ZM63.6464 69.6291C63.6435 69.6262 63.6406 69.6234 63.6376 69.6205L63.6375 69.6204C63.6061 69.5898 63.5936 69.572 63.5908 69.5679C63.5892 69.5655 63.5909 69.5677 63.5941 69.5745C63.5987 69.5842 63.6047 69.5997 63.6091 69.62C63.611 69.6285 63.6124 69.637 63.6133 69.6452C63.6133 69.6453 63.6133 69.6453 63.6134 69.6454C63.6147 69.6566 63.6152 69.6673 63.6151 69.6772C63.6148 69.6983 63.6117 69.7089 63.6123 69.7065C63.6127 69.705 63.6145 69.6986 63.6193 69.6865C63.6251 69.6721 63.6337 69.6531 63.6464 69.6291ZM63.6464 69.6291C65.387 71.3353 65.7545 73.7087 65.1851 75.7996C64.6173 77.8848 63.0951 79.7985 60.9015 80.6625C59.8773 81.0659 58.8807 81.5765 57.8443 82.1138L57.8434 82.1142C57.2338 82.4296 56.9733 82.736 56.9197 83.2104M56.9197 83.2104C56.8533 83.7986 56.4982 84.3798 56.0827 84.7219L56.0802 84.724C54.657 85.8883 53.2454 87.1066 51.8224 88.3346C48.3371 91.3424 44.7831 94.4095 40.8217 96.8896L40.8194 96.891C38.6891 98.2168 36.4986 99.4432 34.2548 100.566M56.9197 83.2104L56.2898 83.1392C56.2895 83.1444 56.2892 83.1497 56.2889 83.1549L33.9523 99.9672M54.933 82.9802C54.9338 82.977 54.9331 82.9788 54.9324 82.9856C54.9326 82.9838 54.9328 82.982 54.933 82.9802ZM54.933 82.9802C54.9323 82.9827 54.9308 82.9883 54.9278 82.9969C54.9211 83.0157 54.91 83.0409 54.8938 83.0693C54.8902 83.0757 54.8864 83.082 54.8826 83.0882C54.8825 83.0884 54.8823 83.0886 54.8822 83.0889C54.8693 83.1095 54.8558 83.1284 54.8426 83.1446C54.8249 83.1662 54.8132 83.1766 54.8113 83.1781L55.0551 83.4741C54.9893 83.5356 54.9174 83.5949 54.85 83.6505C54.8223 83.6734 54.7954 83.6956 54.77 83.717C53.9901 84.3781 53.2149 85.0451 52.4396 85.7121C50.5411 87.3457 48.6426 88.9792 46.675 90.525C46.511 90.6538 46.3471 90.7827 46.1833 90.9116C44.1474 92.5124 42.1144 94.1109 39.9821 95.5457L39.7626 95.193C39.7622 95.1933 39.7618 95.1936 39.7613 95.1938M54.933 82.9802L55.0565 83.4727L54.8138 83.176C54.715 83.2569 54.6165 83.3378 54.5181 83.4188C54.5179 83.4189 54.5178 83.4191 54.5176 83.4192C53.1101 84.5784 51.745 85.7567 50.3903 86.9261C49.0828 88.0546 47.785 89.1748 46.4681 90.2616C44.3246 92.0303 42.1304 93.7105 39.7613 95.1938M39.7613 95.1938C37.6832 96.4871 35.5463 97.6834 33.3575 98.7788L33.3552 98.7799C32.9822 98.9678 32.5494 99.0973 32.0343 99.2211C31.8886 99.2561 31.7289 99.2921 31.5615 99.3299C31.1833 99.4153 30.7659 99.5094 30.3835 99.6206L39.9808 95.5466L39.7604 95.1944C39.7607 95.1942 39.761 95.194 39.7613 95.1938ZM55.447 83.95C55.3526 84.0272 55.2584 84.1046 55.1642 84.1821L55.4166 84.4799C54.649 85.1304 53.8809 85.7913 53.1096 86.455C51.2042 88.0945 49.2789 89.751 47.2928 91.3114L47.0857 91.0478L47.2928 91.3114C47.1112 91.454 46.9295 91.597 46.7475 91.7401C44.7302 93.3268 42.6826 94.9374 40.512 96.3949C40.5116 96.3951 40.5113 96.3954 40.511 96.3956C38.4608 97.7722 36.3008 99.0124 33.953 99.9669L34.2548 100.566M55.447 83.95C55.6744 83.7628 55.8735 83.4313 55.9204 83.1388L55.447 83.95ZM34.2548 100.566C34.2541 100.567 34.2533 100.567 34.2525 100.567L33.9523 99.9672M33.9523 99.9672L33.805 99.673C33.1702 99.9927 32.4563 100.154 31.7413 100.315L33.9523 99.9672ZM33.9523 99.9672C32.9366 100.38 31.8858 100.74 30.7936 101.034C30.7935 101.034 30.7934 101.034 30.7932 101.034C30.576 101.092 30.357 101.148 30.1364 101.201L30.136 101.201C29.9389 101.249 29.7425 101.306 29.5464 101.371C29.5463 101.371 29.5462 101.371 29.5461 101.371C28.7649 101.631 27.9866 102.024 27.1713 102.489C26.8215 102.688 26.4509 102.91 26.0698 103.138C25.6664 103.379 25.2512 103.628 24.8365 103.864C24.8361 103.864 24.8358 103.865 24.8354 103.865C24.5596 104.022 24.284 104.174 24.0121 104.315L23.7397 103.791L33.9523 99.9672ZM87.341 35.935C87.572 33.833 85.463 31.572 83.264 32.234L87.341 35.935ZM87.341 35.935C87.3308 36.0284 87.3109 36.1254 87.2829 36.2234L86.9327 36.1441L87.341 35.935ZM30.3828 99.6208L30.3447 99.6318C30.1784 99.68 29.9928 99.7338 29.7982 99.7978L30.3828 99.6208ZM55.1634 84.1828L55.4153 84.481C55.4255 84.4724 55.4402 84.4603 55.4583 84.4454C55.5142 84.3995 55.6026 84.3268 55.6905 84.2477C55.6909 84.2474 55.6912 84.2471 55.6915 84.2469C55.7335 84.2091 55.7754 84.1698 55.8136 84.1313C55.9242 84.0198 56.2638 83.6728 56.2888 83.1568L55.1634 84.1828ZM86.532 37.374C86.5818 37.3366 86.6306 37.2946 86.6781 37.2487L83.4934 39.4708C83.5663 39.4224 83.6393 39.374 83.7122 39.3256C84.6658 38.6928 85.619 38.0604 86.532 37.374ZM54.2912 83.0593C54.2913 83.0582 54.2913 83.0572 54.2914 83.0561L54.2912 83.0593Z" fill="#008000" stroke="white" stroke-width="2"/>
</svg>
